<svg xmlns="http://www.w3.org/2000/svg" width="800" height="500" viewBox="0 0 800 500" role="img" aria-labelledby="title desc">
  <title id="title">Ourwater project preview</title>
  <desc id="desc">Retro styled placeholder illustration for the Ourwater project.</desc>
  <defs>
    <linearGradient id="bg" x1="0" y1="0" x2="1" y2="1">
      <stop offset="0%" stop-color="#d3f1f0"/>
      <stop offset="100%" stop-color="#67bfc0"/>
    </linearGradient>
  </defs>
  <rect width="800" height="500" fill="url(#bg)"/>
  <rect x="32" y="32" width="736" height="436" rx="20" fill="#f2fbfb" stroke="#000" stroke-width="8"/>
  <path d="M122 238 C170 178, 234 178, 282 238 C330 298, 394 298, 442 238 C490 178, 554 178, 602 238" fill="none" stroke="#156b6b" stroke-width="12" stroke-linecap="round"/>
  <path d="M122 286 C170 226, 234 226, 282 286 C330 346, 394 346, 442 286 C490 226, 554 226, 602 286" fill="none" stroke="#156b6b" stroke-width="12" stroke-linecap="round" opacity="0.7"/>
  <rect x="378" y="88" width="314" height="112" rx="18" fill="#dff8f8" stroke="#000" stroke-width="6"/>
  <text x="408" y="138" font-family="Share Tech Mono, monospace" font-size="44" font-weight="700" fill="#000">Ourwater</text>
  <text x="408" y="176" font-family="Share Tech Mono, monospace" font-size="21" fill="#245">product story / stack / results</text>
  <rect x="94" y="340" width="612" height="74" rx="16" fill="#e5f7f7" stroke="#000" stroke-width="5"/>
  <text x="122" y="388" font-family="Times New Roman, serif" font-size="32" fill="#000">A project with its own story</text>
</svg>